<?xml version="1.0" encoding="UTF-8"?>
<svg width="60px" height="81px" viewBox="0 0 60 81" version="1.1" xmlns="http://www.w3.org/2000/svg" xmlns:xlink="http://www.w3.org/1999/xlink">
    <!-- Generator: sketchtool 62 (101010) - https://sketch.com -->
    <title>C833A94C-1CB1-4A8B-AAED-2AC5789C6DAD</title>
    <desc>Created with sketchtool.</desc>
    <g id="Page-1" stroke="none" stroke-width="1" fill="none" fill-rule="evenodd" stroke-linejoin="round">
        <g id="Homepage" transform="translate(-71.000000, -741.000000)" stroke="#FFFFFF" stroke-width="2">
            <g id="iconfinder_FIRE_HYDRDNT-hydrant-hydration-firefighter-protection-water-security_5452432" transform="translate(72.000000, 742.000000)">
                <rect id="Rectangle" x="6" y="71" width="45" height="8"></rect>
                <rect id="Rectangle" x="5" y="21" width="47" height="8"></rect>
                <line x1="10.5" y1="29" x2="10.5" y2="71" id="Path"></line>
                <line x1="47.5" y1="29" x2="47.5" y2="71" id="Path"></line>
                <polyline id="Path" points="10 39 5 39 5 55 10 55"></polyline>
                <polyline id="Path" points="5 42 0 42 0 53 5 53"></polyline>
                <polyline id="Path" points="47 39 52 39 52 55 47 55"></polyline>
                <polyline id="Path" points="53 42 58 42 58 53 53 53"></polyline>
                <polyline id="Path" points="25 5 25 0 33 0 33 5"></polyline>
                <circle id="Oval" cx="29" cy="43" r="9"></circle>
                <circle id="Oval" cx="29" cy="43" r="4"></circle>
                <path d="M10,21 L10,21 C10,12.163444 17.0994847,5 25.8571429,5 L31.1428571,5 C39.9005153,5 47,12.163444 47,21 L47,21" id="Path"></path>
                <path d="M16,71 L16,60.6 C16,59.1640597 17.1192881,58 18.5,58 L18.5,58 C19.8807119,58 21,59.1640597 21,60.6 L21,71" id="Path"></path>
                <path d="M26,71 L26,60.6 C26,59.1640597 27.1192881,58 28.5,58 L28.5,58 C29.8807119,58 31,59.1640597 31,60.6 L31,71" id="Path"></path>
                <path d="M37,71 L37,60.6 C37,59.1640597 38.1192881,58 39.5,58 L39.5,58 C40.8807119,58 42,59.1640597 42,60.6 L42,71" id="Path"></path>
                <path d="M22,21 L22,21 C22.0000777,15.0238167 24.4928715,9.29242939 28.93,5.06666667 L29,5" id="Path"></path>
                <path d="M36,21 L36,21 C35.9999223,15.0238167 33.5071285,9.29242939 29.07,5.06666667 L29,5" id="Path"></path>
            </g>
        </g>
    </g>
</svg>