<?xml version="1.0" encoding="UTF-8"?>
<svg width="63px" height="79px" viewBox="0 0 63 79" version="1.1" xmlns="http://www.w3.org/2000/svg" xmlns:xlink="http://www.w3.org/1999/xlink">
    <!-- Generator: sketchtool 62 (101010) - https://sketch.com -->
    <title>F1FE7967-25D3-4CDF-99C0-6562910489F1</title>
    <desc>Created with sketchtool.</desc>
    <g id="Page-1" stroke="none" stroke-width="1" fill="none" fill-rule="evenodd">
        <g id="Homepage" transform="translate(-242.000000, -568.000000)" fill="#FFFFFF" fill-rule="nonzero">
            <g id="iconfinder_fire_truckcity_elementsbustransportaion_4213854" transform="translate(242.000000, 568.000000)">
                <g id="Group" transform="translate(0.000000, 3.732283)">
                    <path d="M5.20964567,50.3080709 C5.20964567,43.8076772 5.20964567,37.2917323 5.20964567,30.7913386 C5.20964567,23.2645669 5.20964567,15.7222441 5.20964567,8.19547244 C5.20964567,7.49566929 5.14744094,6.73366142 5.27185039,6.03385827 C5.53622047,4.47874016 6.67145669,3.20354331 8.16437008,2.70590551 C9.42401575,2.28602362 11.0257874,2.48818898 12.3320866,2.48818898 C16.8419291,2.48818898 21.3362205,2.48818898 25.846063,2.48818898 C32.284252,2.48818898 38.7068898,2.48818898 45.1450787,2.48818898 C47.3222441,2.48818898 49.4994094,2.48818898 51.6765748,2.48818898 C52.1275591,2.48818898 52.5785433,2.48818898 53.0139764,2.48818898 C54.3980315,2.48818898 55.5799213,3.1257874 56.4663386,4.18326772 C57.7415354,5.70728346 57.3216535,8.31988189 57.3216535,10.1549213 C57.3216535,11.7722441 57.3216535,13.3895669 57.3216535,15.0068898 C57.3216535,21.4917323 57.3216535,27.992126 57.3216535,34.4769685 C57.3216535,39.7643701 57.3216535,45.0362205 57.3216535,50.323622 C57.3216535,51.8320866 59.6543307,51.8320866 59.6543307,50.323622 C59.6543307,43.8232283 59.6543307,37.3072835 59.6543307,30.8068898 C59.6543307,23.2801181 59.6543307,15.7377953 59.6543307,8.21102362 C59.6543307,7.41791339 59.6854331,6.62480315 59.5765748,5.84724409 C59.3277559,4.07440945 58.3324803,2.45708661 56.8862205,1.41515748 C55.2222441,0.202165354 53.4027559,0.155511811 51.4744094,0.155511811 C46.9334646,0.155511811 42.3769685,0.155511811 37.8360236,0.155511811 C31.6466535,0.155511811 25.4572835,0.155511811 19.2523622,0.155511811 C16.8574803,0.155511811 14.4625984,0.155511811 12.0677165,0.155511811 C10.5748031,0.155511811 8.9730315,0.0155511811 7.51122047,0.450984252 C4.49429134,1.33740157 2.86141732,4.18326772 2.86141732,7.20019685 C2.86141732,9.42401575 2.86141732,11.6322835 2.86141732,13.8561024 C2.86141732,19.9521654 2.86141732,26.0482283 2.86141732,32.1442913 C2.86141732,38.1937008 2.86141732,44.2586614 2.86141732,50.3080709 C2.8769685,51.8165354 5.20964567,51.8165354 5.20964567,50.3080709 L5.20964567,50.3080709 Z" id="Path"></path>
                    <path d="M13.7627953,61.1938976 C13.7627953,65.5015748 13.7627953,69.7937008 13.7627953,74.101378 C14.1515748,73.7125984 14.5403543,73.3238189 14.9291339,72.9350394 C11.3057087,72.9350394 7.66673228,72.9350394 4.04330709,72.9350394 C4.43208661,73.3238189 4.82086614,73.7125984 5.20964567,74.101378 C5.20964567,69.7937008 5.20964567,65.5015748 5.20964567,61.1938976 C5.20964567,59.6854331 2.8769685,59.6854331 2.8769685,61.1938976 C2.8769685,65.5015748 2.8769685,69.7937008 2.8769685,74.101378 C2.8769685,74.7389764 3.40570866,75.2677165 4.04330709,75.2677165 C7.66673228,75.2677165 11.3057087,75.2677165 14.9291339,75.2677165 C15.5667323,75.2677165 16.0954724,74.7389764 16.0954724,74.101378 C16.0954724,69.7937008 16.0954724,65.5015748 16.0954724,61.1938976 C16.0954724,59.6854331 13.7627953,59.6854331 13.7627953,61.1938976 L13.7627953,61.1938976 Z" id="Path"></path>
                    <path d="M57.3061024,61.1938976 C57.3061024,65.5015748 57.3061024,69.7937008 57.3061024,74.101378 C57.6948819,73.7125984 58.0836614,73.3238189 58.4724409,72.9350394 C54.8490157,72.9350394 51.2100394,72.9350394 47.5866142,72.9350394 C47.9753937,73.3238189 48.3641732,73.7125984 48.7529528,74.101378 C48.7529528,69.7937008 48.7529528,65.5015748 48.7529528,61.1938976 C48.7529528,59.6854331 46.4202756,59.6854331 46.4202756,61.1938976 C46.4202756,65.5015748 46.4202756,69.7937008 46.4202756,74.101378 C46.4202756,74.7389764 46.9490157,75.2677165 47.5866142,75.2677165 C51.2100394,75.2677165 54.8490157,75.2677165 58.4724409,75.2677165 C59.1100394,75.2677165 59.6387795,74.7389764 59.6387795,74.101378 C59.6387795,69.7937008 59.6387795,65.5015748 59.6387795,61.1938976 C59.6387795,59.6854331 57.3061024,59.6854331 57.3061024,61.1938976 L57.3061024,61.1938976 Z" id="Path"></path>
                    <path d="M53.0295276,2.4726378 C54.5379921,2.4726378 54.5379921,0.13996063 53.0295276,0.13996063 C51.521063,0.13996063 51.521063,2.4726378 53.0295276,2.4726378 L53.0295276,2.4726378 Z" id="Path"></path>
                    <path d="M4.04330709,16.0954724 C9.92165354,16.0954724 15.8,16.0954724 21.6627953,16.0954724 C31.3045276,16.0954724 40.961811,16.0954724 50.6035433,16.0954724 C53.2316929,16.0954724 55.8598425,16.0954724 58.4724409,16.0954724 C58.0836614,15.7066929 57.6948819,15.3179134 57.3061024,14.9291339 C57.3061024,20.3720472 57.3061024,25.8149606 57.3061024,31.257874 C57.6948819,30.8690945 58.0836614,30.480315 58.4724409,30.0915354 C52.5940945,30.0915354 46.715748,30.0915354 40.8529528,30.0915354 C31.2112205,30.0915354 21.553937,30.0915354 11.9122047,30.0915354 C9.28405512,30.0915354 6.65590551,30.0915354 4.04330709,30.0915354 C4.43208661,30.480315 4.82086614,30.8690945 5.20964567,31.257874 C5.20964567,25.8149606 5.20964567,20.3720472 5.20964567,14.9291339 C5.20964567,13.4206693 2.8769685,13.4206693 2.8769685,14.9291339 C2.8769685,20.3720472 2.8769685,25.8149606 2.8769685,31.257874 C2.8769685,31.8954724 3.40570866,32.4242126 4.04330709,32.4242126 C9.92165354,32.4242126 15.8,32.4242126 21.6627953,32.4242126 C31.3045276,32.4242126 40.961811,32.4242126 50.6035433,32.4242126 C53.2316929,32.4242126 55.8598425,32.4242126 58.4724409,32.4242126 C59.1100394,32.4242126 59.6387795,31.8954724 59.6387795,31.257874 C59.6387795,25.8149606 59.6387795,20.3720472 59.6387795,14.9291339 C59.6387795,14.2915354 59.1100394,13.7627953 58.4724409,13.7627953 C52.5940945,13.7627953 46.715748,13.7627953 40.8529528,13.7627953 C31.2112205,13.7627953 21.553937,13.7627953 11.9122047,13.7627953 C9.28405512,13.7627953 6.65590551,13.7627953 4.04330709,13.7627953 C2.53484252,13.7627953 2.53484252,16.0954724 4.04330709,16.0954724 Z" id="Path"></path>
                    <path d="M39.4222441,51.4744094 C43.0145669,51.4744094 46.6068898,51.4744094 50.1836614,51.4744094 C52.376378,51.4744094 54.5690945,51.4744094 56.761811,51.4744094 C57.2905512,51.4744094 57.8192913,51.4744094 58.3480315,51.4744094 C59.0322835,51.4744094 59.8098425,51.3344488 60.0275591,52.1742126 C60.198622,52.7962598 60.0275591,53.6826772 60.0275591,54.3202756 C60.0275591,55.5488189 60.0275591,56.7773622 60.0275591,57.9903543 C60.0275591,58.5812992 60.2297244,59.7009843 59.5299213,59.9653543 C59.0633858,60.1519685 58.3791339,60.0275591 57.8659449,60.0275591 C54.3358268,60.0275591 50.8057087,60.0275591 47.2755906,60.0275591 C39.671063,60.0275591 32.0665354,60.0275591 24.4620079,60.0275591 C17.8216535,60.0275591 11.1812992,60.0275591 4.5253937,60.0275591 C3.99665354,60.0275591 3.31240157,60.1519685 2.84586614,59.9187008 C2.23937008,59.6076772 2.44153543,58.4102362 2.44153543,57.8659449 C2.44153543,56.6374016 2.44153543,55.4088583 2.44153543,54.180315 C2.44153543,53.4805118 2.31712598,52.6562992 2.50374016,51.9720472 C2.72145669,51.1944882 5.13188976,51.4744094 5.78503937,51.4744094 C7.97775591,51.4744094 10.1860236,51.4744094 12.3787402,51.4744094 C15.9399606,51.4744094 19.5167323,51.4744094 23.0779528,51.4744094 C24.5864173,51.4744094 24.5864173,49.1417323 23.0779528,49.1417323 C19.5167323,49.1417323 15.9399606,49.1417323 12.3787402,49.1417323 C10.1860236,49.1417323 7.97775591,49.1417323 5.78503937,49.1417323 C4.4476378,49.1417323 2.86141732,48.9551181 1.66397638,49.5771654 C0.450984252,50.2147638 0.108858268,51.5366142 0.108858268,52.7807087 C0.108858268,53.9003937 0.108858268,55.0200787 0.108858268,56.1397638 C0.108858268,57.1194882 0.108858268,58.0836614 0.108858268,59.0633858 C0.108858268,60.6340551 1.11968504,62.0492126 2.72145669,62.3135827 C4.24547244,62.5624016 5.95610236,62.3602362 7.48011811,62.3602362 C9.71948819,62.3602362 11.9744094,62.3602362 14.2137795,62.3602362 C21.1340551,62.3602362 28.0543307,62.3602362 34.9746063,62.3602362 C41.6771654,62.3602362 48.3952756,62.3602362 55.0978346,62.3602362 C56.6529528,62.3602362 58.3635827,62.5312992 59.9187008,62.2669291 C61.4582677,62.0181102 62.3291339,60.4318898 62.3291339,59.0011811 C62.3291339,57.9903543 62.3291339,56.9795276 62.3291339,55.9687008 C62.3291339,53.8070866 62.9200787,50.665748 60.5874016,49.4527559 C59.4988189,48.8929134 57.7570866,49.1106299 56.5285433,49.1106299 C50.8057087,49.1106299 45.0984252,49.1106299 39.3755906,49.1106299 C37.9137795,49.1417323 37.9137795,51.4744094 39.4222441,51.4744094 L39.4222441,51.4744094 Z" id="Path"></path>
                    <path d="M39.4222441,60.0275591 C33.9948819,60.0275591 28.5675197,60.0275591 23.1401575,60.0275591 C23.528937,60.4163386 23.9177165,60.8051181 24.3064961,61.1938976 C24.3064961,57.3216535 24.3064961,53.4649606 24.3064961,49.5927165 C24.3064961,48.8151575 24.3064961,48.0220472 24.3064961,47.2444882 C24.3064961,46.6846457 24.384252,46.0314961 25.1151575,46.0314961 C26.7635827,46.0314961 28.4120079,46.0314961 30.0448819,46.0314961 C32.2687008,46.0314961 34.4769685,46.0314961 36.7007874,46.0314961 C37.2139764,46.0314961 37.9604331,45.9070866 38.1937008,46.5291339 C38.3492126,46.9179134 38.2559055,47.4933071 38.2559055,47.8976378 C38.2559055,52.1586614 38.2559055,56.419685 38.2559055,60.6807087 C38.2559055,60.8517717 38.2559055,61.0383858 38.2559055,61.2094488 C38.2559055,62.7179134 40.5885827,62.7179134 40.5885827,61.2094488 C40.5885827,57.3372047 40.5885827,53.4805118 40.5885827,49.6082677 C40.5885827,47.8976378 40.9151575,45.8759843 39.5933071,44.569685 C38.3336614,43.3100394 35.8610236,43.7143701 34.2437008,43.7143701 C31.8332677,43.7143701 29.4383858,43.7143701 27.0279528,43.7143701 C26.4059055,43.7143701 25.7838583,43.7143701 25.161811,43.7143701 C23.528937,43.7143701 22.067126,44.9740157 21.9738189,46.6379921 C21.896063,48.0687008 21.9582677,49.5149606 21.9582677,50.9456693 C21.9582677,53.4027559 21.9582677,55.8598425 21.9582677,58.3324803 C21.9582677,59.2966535 21.9582677,60.2608268 21.9582677,61.2094488 C21.9582677,61.8470472 22.4870079,62.3757874 23.1246063,62.3757874 C28.5519685,62.3757874 33.9793307,62.3757874 39.4066929,62.3757874 C40.9307087,62.3602362 40.9307087,60.0275591 39.4222441,60.0275591 Z" id="Path"></path>
                    <path d="M14.9291339,40.7129921 C14.0271654,40.7129921 13.1251969,40.7129921 12.2232283,40.7129921 C10.5281496,40.7129921 10.5437008,38.1937008 12.2076772,38.1159449 C13.1096457,38.0848425 14.0116142,38.1159449 14.9135827,38.1159449 C16.6086614,38.1159449 16.6086614,40.6507874 14.9291339,40.7129921 C13.4362205,40.7751969 13.4206693,43.107874 14.9291339,43.0456693 C18.1482283,42.9057087 19.7344488,39.0956693 17.4173228,36.7785433 C16.0799213,35.4411417 13.9183071,35.7832677 12.192126,35.7832677 C8.91082677,35.7832677 7.44901575,39.8110236 9.70393701,42.0503937 C11.0413386,43.3877953 13.2029528,43.0456693 14.9291339,43.0456693 C16.4375984,43.0456693 16.4375984,40.7129921 14.9291339,40.7129921 Z" id="Path"></path>
                    <path d="M50.3080709,40.7129921 C49.4061024,40.7129921 48.5041339,40.7129921 47.6021654,40.7129921 C45.9070866,40.7129921 45.9070866,38.1937008 47.5866142,38.1159449 C48.4885827,38.0848425 49.3905512,38.1159449 50.2925197,38.1159449 C51.9875984,38.1159449 51.9875984,40.6507874 50.3080709,40.7129921 C48.8151575,40.7751969 48.7996063,43.107874 50.3080709,43.0456693 C53.5271654,42.9057087 55.1133858,39.0956693 52.7962598,36.7785433 C51.4588583,35.4411417 49.2972441,35.7832677 47.5866142,35.7832677 C44.305315,35.7832677 42.8435039,39.8110236 45.0984252,42.0503937 C46.4358268,43.3877953 48.5974409,43.0456693 50.323622,43.0456693 C51.8165354,43.0456693 51.8165354,40.7129921 50.3080709,40.7129921 Z" id="Path"></path>
                    <path d="M10.901378,31.257874 C10.9324803,30.480315 11.3523622,30.2625984 11.9277559,29.8427165 C12.6586614,29.282874 13.4051181,28.7385827 14.1360236,28.1787402 C16.0954724,26.7169291 18.0549213,25.2395669 20.0143701,23.7777559 C20.9163386,23.0935039 22.7824803,21.1029528 23.9643701,22.1293307 C25.6127953,23.5600394 22.5336614,25.1462598 21.553937,25.8927165 C19.6100394,27.3545276 17.6816929,28.8007874 15.7377953,30.2625984 C15.2246063,30.6358268 14.9757874,31.257874 15.3179134,31.8643701 C15.6133858,32.3620079 16.4064961,32.6574803 16.919685,32.284252 C19.6722441,30.2159449 22.4248031,28.163189 25.1773622,26.0948819 C26.7635827,24.8974409 27.2301181,22.7202756 26.0793307,21.0562992 C24.9596457,19.4234252 22.6580709,19.0346457 21.040748,20.1387795 C19.8433071,20.9629921 18.7080709,21.896063 17.5417323,22.7669291 C15.6755906,24.1665354 13.8094488,25.5661417 11.9588583,26.965748 C10.4037402,28.1320866 8.69311024,29.111811 8.59980315,31.2889764 C8.50649606,32.7507874 10.8391732,32.7507874 10.901378,31.257874 L10.901378,31.257874 Z" id="Path"></path>
                    <path d="M38.1314961,31.257874 C38.1625984,30.480315 38.5824803,30.2625984 39.157874,29.8427165 C39.8887795,29.282874 40.6352362,28.7385827 41.3661417,28.1787402 C43.3255906,26.7169291 45.2850394,25.2395669 47.2444882,23.7777559 C48.1464567,23.0935039 50.0125984,21.1029528 51.1944882,22.1293307 C52.8429134,23.5600394 49.7637795,25.1462598 48.7840551,25.8927165 C46.8401575,27.3545276 44.911811,28.8007874 42.9679134,30.2625984 C42.4547244,30.6358268 42.2059055,31.257874 42.5480315,31.8643701 C42.8435039,32.3620079 43.6366142,32.6574803 44.1498031,32.284252 C46.9023622,30.2159449 49.6549213,28.163189 52.4074803,26.0948819 C53.9937008,24.8974409 54.4602362,22.7202756 53.3094488,21.0562992 C52.1897638,19.4234252 49.888189,19.0346457 48.2708661,20.1387795 C47.0734252,20.9629921 45.938189,21.896063 44.7718504,22.7669291 C42.9057087,24.1665354 41.0395669,25.5661417 39.1889764,26.965748 C37.6338583,28.1320866 35.9387795,29.111811 35.8299213,31.2889764 C35.721063,32.7507874 38.0537402,32.7507874 38.1314961,31.257874 L38.1314961,31.257874 Z" id="Path"></path>
                    <path d="M28.7852362,16.0954724 C30.4336614,16.0954724 32.0665354,16.0954724 33.7149606,16.0954724 C33.3261811,15.7066929 32.9374016,15.3179134 32.548622,14.9291339 C32.548622,20.3720472 32.548622,25.8149606 32.548622,31.257874 C32.9374016,30.8690945 33.3261811,30.480315 33.7149606,30.0915354 C32.0665354,30.0915354 30.4336614,30.0915354 28.7852362,30.0915354 C29.1740157,30.480315 29.5627953,30.8690945 29.9515748,31.257874 C29.9515748,25.8149606 29.9515748,20.3720472 29.9515748,14.9291339 C29.9515748,13.4206693 27.6188976,13.4206693 27.6188976,14.9291339 C27.6188976,20.3720472 27.6188976,25.8149606 27.6188976,31.257874 C27.6188976,31.8954724 28.1476378,32.4242126 28.7852362,32.4242126 C30.4336614,32.4242126 32.0665354,32.4242126 33.7149606,32.4242126 C34.3525591,32.4242126 34.8812992,31.8954724 34.8812992,31.257874 C34.8812992,25.8149606 34.8812992,20.3720472 34.8812992,14.9291339 C34.8812992,14.2915354 34.3525591,13.7627953 33.7149606,13.7627953 C32.0665354,13.7627953 30.4336614,13.7627953 28.7852362,13.7627953 C27.2923228,13.7627953 27.2923228,16.0954724 28.7852362,16.0954724 Z" id="Path"></path>
                </g>
                <path d="M36.8562992,5.05413386 C36.8562992,2.03720472 34.088189,0.0777559055 31.2889764,0.0155511811 C28.4897638,-0.0466535433 25.7216535,2.14606299 25.7216535,5.05413386 C25.7216535,6.56259843 28.0543307,6.56259843 28.0543307,5.05413386 C28.0543307,1.4773622 34.5391732,1.4773622 34.5391732,5.05413386 C34.523622,6.54704724 36.8562992,6.54704724 36.8562992,5.05413386 L36.8562992,5.05413386 Z" id="Path"></path>
            </g>
        </g>
    </g>
</svg>