<?xml version="1.0" encoding="UTF-8"?>
<svg width="73px" height="73px" viewBox="0 0 73 73" version="1.1" xmlns="http://www.w3.org/2000/svg" xmlns:xlink="http://www.w3.org/1999/xlink">
    <!-- Generator: sketchtool 62 (101010) - https://sketch.com -->
    <title>AB51C685-2533-463E-BD7E-DF1780897EE0</title>
    <desc>Created with sketchtool.</desc>
    <g id="Page-1" stroke="none" stroke-width="1" fill="none" fill-rule="evenodd">
        <g id="Homepage" transform="translate(-238.000000, -398.000000)">
            <g id="iconfinder_ic_local_hospital_48px_352501" transform="translate(228.000000, 388.000000)">
                <polygon id="Path" points="0 0 92 0 92 92 0 92"></polygon>
                <path d="M73.3333333,12 L19.6666667,12 C15.4308333,12 12.0383333,15.4308333 12.0383333,19.6666667 L12,73.3333333 C12,77.5691667 15.4308333,81 19.6666667,81 L73.3333333,81 C77.5691667,81 81,77.5691667 81,73.3333333 L81,19.6666667 C81,15.4308333 77.5691667,12 73.3333333,12 Z M69.5,54.1666667 L54.1666667,54.1666667 L54.1666667,69.5 L38.8333333,69.5 L38.8333333,54.1666667 L23.5,54.1666667 L23.5,38.8333333 L38.8333333,38.8333333 L38.8333333,23.5 L54.1666667,23.5 L54.1666667,38.8333333 L69.5,38.8333333 L69.5,54.1666667 Z" id="Shape" stroke="#FFFFFF" stroke-width="3" fill-rule="nonzero"></path>
            </g>
        </g>
    </g>
</svg>