<?xml version="1.0" encoding="UTF-8"?>
<svg width="20px" height="20px" viewBox="0 0 20 20" version="1.1" xmlns="http://www.w3.org/2000/svg" xmlns:xlink="http://www.w3.org/1999/xlink">
    <!-- Generator: sketchtool 62 (101010) - https://sketch.com -->
    <title>CCFE126C-16F8-4F34-BBEA-4CA58C18C0DD</title>
    <desc>Created with sketchtool.</desc>
    <g id="Page-1" stroke="none" stroke-width="1" fill="none" fill-rule="evenodd">
        <g id="Homepage" transform="translate(-32.000000, -122.000000)" fill="#C8C8C8" fill-rule="nonzero">
            <g id="iconfinder_icon-111-search_314478" transform="translate(32.000000, 122.000000)">
                <path d="M12.5353368,14.4039914 C11.2377797,15.3286745 9.65012981,15.8725616 7.93546129,15.8725616 C3.55282682,15.8725616 0,12.3193678 0,7.93628078 C0,3.55319371 3.55282682,0 7.93546129,0 C12.3180958,0 15.8709226,3.55319371 15.8709226,7.93628078 C15.8709226,9.65112637 15.3270917,11.2389402 14.4025041,12.5366313 L19.6163834,17.751049 C20.1300421,18.2647607 20.1257594,19.086726 19.6161975,19.5963406 L19.5943171,19.6182232 C19.0860586,20.1265343 18.2586753,20.127921 17.749216,19.6184091 L12.5353368,14.4039914 L12.5353368,14.4039914 Z M7.93546129,14.0052014 C11.2868877,14.0052014 14.0037552,11.2880533 14.0037552,7.93628078 C14.0037552,4.58450827 11.2868877,1.86736018 7.93546129,1.86736018 C4.58403489,1.86736018 1.86716736,4.58450827 1.86716736,7.93628078 C1.86716736,11.2880533 4.58403489,14.0052014 7.93546129,14.0052014 L7.93546129,14.0052014 Z" id="search"></path>
            </g>
        </g>
    </g>
</svg>