<?xml version="1.0" encoding="UTF-8"?>
<svg width="65px" height="81px" viewBox="0 0 65 81" version="1.1" xmlns="http://www.w3.org/2000/svg" xmlns:xlink="http://www.w3.org/1999/xlink">
    <!-- Generator: sketchtool 62 (101010) - https://sketch.com -->
    <title>147A8136-CC1C-495B-821F-7DDEF80CCF9E</title>
    <desc>Created with sketchtool.</desc>
    <g id="Page-1" stroke="none" stroke-width="1" fill="none" fill-rule="evenodd">
        <g id="Homepage" transform="translate(-68.000000, -561.000000)" fill-rule="nonzero" stroke="#FFFFFF" stroke-width="2">
            <g id="iconfinder_hospital-o_1608931" transform="translate(69.000000, 562.000000)">
                <path d="M17.0058708,58.4005376 L17.0058708,61.3736559 C17.0058708,61.7762657 16.8586195,62.124678 16.5641168,62.4188928 C16.2696141,62.7131076 15.9208609,62.8602151 15.5178571,62.8602151 L12.5418297,62.8602151 C12.138826,62.8602151 11.7900728,62.7131076 11.4955701,62.4188928 C11.2010674,62.124678 11.053816,61.7762657 11.053816,61.3736559 L11.053816,58.4005376 C11.053816,57.9979279 11.2010674,57.6495156 11.4955701,57.3553007 C11.7900728,57.0610859 12.138826,56.9139785 12.5418297,56.9139785 L15.5178571,56.9139785 C15.9208609,56.9139785 16.2696141,57.0610859 16.5641168,57.3553007 C16.8586195,57.6495156 17.0058708,57.9979279 17.0058708,58.4005376 Z M17.0058708,46.5080645 L17.0058708,49.4811828 C17.0058708,49.8837926 16.8586195,50.2322049 16.5641168,50.5264197 C16.2696141,50.8206345 15.9208609,50.9677419 15.5178571,50.9677419 L12.5418297,50.9677419 C12.138826,50.9677419 11.7900728,50.8206345 11.4955701,50.5264197 C11.2010674,50.2322049 11.053816,49.8837926 11.053816,49.4811828 L11.053816,46.5080645 C11.053816,46.1054547 11.2010674,45.7570425 11.4955701,45.4628276 C11.7900728,45.1686128 12.138826,45.0215054 12.5418297,45.0215054 L15.5178571,45.0215054 C15.9208609,45.0215054 16.2696141,45.1686128 16.5641168,45.4628276 C16.8586195,45.7570425 17.0058708,46.1054547 17.0058708,46.5080645 Z M28.0596869,46.5080645 L28.0596869,49.4811828 C28.0596869,49.8837926 27.9124355,50.2322049 27.6179328,50.5264197 C27.3234301,50.8206345 26.9746769,50.9677419 26.5716732,50.9677419 L23.5956458,50.9677419 C23.1926421,50.9677419 22.8438889,50.8206345 22.5493862,50.5264197 C22.2548834,50.2322049 22.1076321,49.8837926 22.1076321,49.4811828 L22.1076321,46.5080645 C22.1076321,46.1054547 22.2548834,45.7570425 22.5493862,45.4628276 C22.8438889,45.1686128 23.1926421,45.0215054 23.5956458,45.0215054 L26.5716732,45.0215054 C26.9746769,45.0215054 27.3234301,45.1686128 27.6179328,45.4628276 C27.9124355,45.7570425 28.0596869,46.1054547 28.0596869,46.5080645 Z M17.0058708,35.4650538 L17.0058708,38.438172 C17.0058708,38.8407818 16.8586195,39.1891941 16.5641168,39.4834089 C16.2696141,39.7776238 15.9208609,39.9247312 15.5178571,39.9247312 L12.5418297,39.9247312 C12.138826,39.9247312 11.7900728,39.7776238 11.4955701,39.4834089 C11.2010674,39.1891941 11.053816,38.8407818 11.053816,38.438172 L11.053816,35.4650538 C11.053816,35.062444 11.2010674,34.7140317 11.4955701,34.4198169 C11.7900728,34.125602 12.138826,33.9784946 12.5418297,33.9784946 L15.5178571,33.9784946 C15.9208609,33.9784946 16.2696141,34.125602 16.5641168,34.4198169 C16.8586195,34.7140317 17.0058708,35.062444 17.0058708,35.4650538 Z M51.0176125,58.4005376 L51.0176125,61.3736559 C51.0176125,61.7762657 50.8703612,62.124678 50.5758585,62.4188928 C50.2813557,62.7131076 49.9326025,62.8602151 49.5295988,62.8602151 L46.5535714,62.8602151 C46.1505677,62.8602151 45.8018145,62.7131076 45.5073118,62.4188928 C45.2128091,62.124678 45.0655577,61.7762657 45.0655577,61.3736559 L45.0655577,58.4005376 C45.0655577,57.9979279 45.2128091,57.6495156 45.5073118,57.3553007 C45.8018145,57.0610859 46.1505677,56.9139785 46.5535714,56.9139785 L49.5295988,56.9139785 C49.9326025,56.9139785 50.2813557,57.0610859 50.5758585,57.3553007 C50.8703612,57.6495156 51.0176125,57.9979279 51.0176125,58.4005376 Z M39.9637965,46.5080645 L39.9637965,49.4811828 C39.9637965,49.8837926 39.8165451,50.2322049 39.5220424,50.5264197 C39.2275397,50.8206345 38.8787865,50.9677419 38.4757828,50.9677419 L35.4997554,50.9677419 C35.0967517,50.9677419 34.7479985,50.8206345 34.4534957,50.5264197 C34.158993,50.2322049 34.0117417,49.8837926 34.0117417,49.4811828 L34.0117417,46.5080645 C34.0117417,46.1054547 34.158993,45.7570425 34.4534957,45.4628276 C34.7479985,45.1686128 35.0967517,45.0215054 35.4997554,45.0215054 L38.4757828,45.0215054 C38.8787865,45.0215054 39.2275397,45.1686128 39.5220424,45.4628276 C39.8165451,45.7570425 39.9637965,46.1054547 39.9637965,46.5080645 Z M28.0596869,35.4650538 L28.0596869,38.438172 C28.0596869,38.8407818 27.9124355,39.1891941 27.6179328,39.4834089 C27.3234301,39.7776238 26.9746769,39.9247312 26.5716732,39.9247312 L23.5956458,39.9247312 C23.1926421,39.9247312 22.8438889,39.7776238 22.5493862,39.4834089 C22.2548834,39.1891941 22.1076321,38.8407818 22.1076321,38.438172 L22.1076321,35.4650538 C22.1076321,35.062444 22.2548834,34.7140317 22.5493862,34.4198169 C22.8438889,34.125602 23.1926421,33.9784946 23.5956458,33.9784946 L26.5716732,33.9784946 C26.9746769,33.9784946 27.3234301,34.125602 27.6179328,34.4198169 C27.9124355,34.7140317 28.0596869,35.062444 28.0596869,35.4650538 Z M51.0176125,46.5080645 L51.0176125,49.4811828 C51.0176125,49.8837926 50.8703612,50.2322049 50.5758585,50.5264197 C50.2813557,50.8206345 49.9326025,50.9677419 49.5295988,50.9677419 L46.5535714,50.9677419 C46.1505677,50.9677419 45.8018145,50.8206345 45.5073118,50.5264197 C45.2128091,50.2322049 45.0655577,49.8837926 45.0655577,49.4811828 L45.0655577,46.5080645 C45.0655577,46.1054547 45.2128091,45.7570425 45.5073118,45.4628276 C45.8018145,45.1686128 46.1505677,45.0215054 46.5535714,45.0215054 L49.5295988,45.0215054 C49.9326025,45.0215054 50.2813557,45.1686128 50.5758585,45.4628276 C50.8703612,45.7570425 51.0176125,46.1054547 51.0176125,46.5080645 Z M39.9637965,35.4650538 L39.9637965,38.438172 C39.9637965,38.8407818 39.8165451,39.1891941 39.5220424,39.4834089 C39.2275397,39.7776238 38.8787865,39.9247312 38.4757828,39.9247312 L35.4997554,39.9247312 C35.0967517,39.9247312 34.7479985,39.7776238 34.4534957,39.4834089 C34.158993,39.1891941 34.0117417,38.8407818 34.0117417,38.438172 L34.0117417,35.4650538 C34.0117417,35.062444 34.158993,34.7140317 34.4534957,34.4198169 C34.7479985,34.125602 35.0967517,33.9784946 35.4997554,33.9784946 L38.4757828,33.9784946 C38.8787865,33.9784946 39.2275397,34.125602 39.5220424,34.4198169 C39.8165451,34.7140317 39.9637965,35.062444 39.9637965,35.4650538 Z M51.0176125,35.4650538 L51.0176125,38.438172 C51.0176125,38.8407818 50.8703612,39.1891941 50.5758585,39.4834089 C50.2813557,39.7776238 49.9326025,39.9247312 49.5295988,39.9247312 L46.5535714,39.9247312 C46.1505677,39.9247312 45.8018145,39.7776238 45.5073118,39.4834089 C45.2128091,39.1891941 45.0655577,38.8407818 45.0655577,38.438172 L45.0655577,35.4650538 C45.0655577,35.062444 45.2128091,34.7140317 45.5073118,34.4198169 C45.8018145,34.125602 46.1505677,33.9784946 46.5535714,33.9784946 L49.5295988,33.9784946 C49.9326025,33.9784946 50.2813557,34.125602 50.5758585,34.4198169 C50.8703612,34.7140317 51.0176125,35.062444 51.0176125,35.4650538 Z M39.3969341,73.0537634 L56.1193738,73.0537634 L56.1193738,22.0860215 L44.9710807,22.0860215 L44.9710807,23.5017921 C44.9710807,24.681601 44.5646325,25.6844385 43.7517361,26.5103047 C42.9388397,27.3361708 41.9517513,27.7491039 40.7904708,27.7491039 L21.2809578,27.7491039 C20.1196773,27.7491039 19.1325888,27.3361708 18.3196925,26.5103047 C17.5067961,25.6844385 17.1003479,24.681601 17.1003479,23.5017921 L17.1003479,22.0860215 L5.95205479,22.0860215 L5.95205479,73.0537634 L22.6744945,73.0537634 L22.6744945,63.1433692 C22.6744945,62.7599313 22.8123965,62.4281101 23.0882006,62.1479055 C23.3640048,61.8677009 23.6906149,61.7275986 24.0680311,61.7275986 L38.0033975,61.7275986 C38.3808137,61.7275986 38.7074238,61.8677009 38.9832279,62.1479055 C39.2590321,62.4281101 39.3969341,62.7599313 39.3969341,63.1433692 L39.3969341,73.0537634 Z M39.9637965,21.5197133 L39.9637965,7.36200717 C39.9637965,6.9785693 39.8235571,6.64674806 39.5430783,6.36654346 C39.2625995,6.08633886 38.9304536,5.94623656 38.5466406,5.94623656 L35.7123288,5.94623656 C35.3285157,5.94623656 34.9963698,6.08633886 34.715891,6.36654346 C34.4354122,6.64674806 34.2951729,6.9785693 34.2951729,7.36200717 L34.2951729,11.609319 L28.6265492,11.609319 L28.6265492,7.36200717 C28.6265492,6.9785693 28.4863099,6.64674806 28.2058311,6.36654346 C27.9253523,6.08633886 27.5932064,5.94623656 27.2093933,5.94623656 L24.3750815,5.94623656 C23.9912685,5.94623656 23.6591226,6.08633886 23.3786438,6.36654346 C23.098165,6.64674806 22.9579256,6.9785693 22.9579256,7.36200717 L22.9579256,21.5197133 C22.9579256,21.9031511 23.098165,22.2349724 23.3786438,22.515177 C23.6591226,22.7953816 23.9912685,22.9354839 24.3750815,22.9354839 L27.2093933,22.9354839 C27.5932064,22.9354839 27.9253523,22.7953816 28.2058311,22.515177 C28.4863099,22.2349724 28.6265492,21.9031511 28.6265492,21.5197133 L28.6265492,17.2724014 L34.2951729,17.2724014 L34.2951729,21.5197133 C34.2951729,21.9031511 34.4354122,22.2349724 34.715891,22.515177 C34.9963698,22.7953816 35.3285157,22.9354839 35.7123288,22.9354839 L38.5466406,22.9354839 C38.9304536,22.9354839 39.2625995,22.7953816 39.5430783,22.515177 C39.8235571,22.2349724 39.9637965,21.9031511 39.9637965,21.5197133 Z M62.0714286,19.75 L62.0714286,76.1785714 C62.0714286,76.9427083 61.7922247,77.6039807 61.233817,78.1623884 C60.6754092,78.7207961 60.0141369,79 59.25,79 L2.82142857,79 C2.05729167,79 1.39601935,78.7207961 0.837611607,78.1623884 C0.279203869,77.6039807 0,76.9427083 0,76.1785714 L0,19.75 C0,18.9858631 0.279203869,18.3245908 0.837611607,17.766183 C1.39601935,17.2077753 2.05729167,16.9285714 2.82142857,16.9285714 L16.9285714,16.9285714 L16.9285714,4.23214286 C16.9285714,3.05654762 17.3400298,2.05729167 18.1629464,1.234375 C18.9858631,0.411458333 19.985119,0 21.1607143,0 L40.9107143,0 C42.0863095,0 43.0855655,0.411458333 43.9084821,1.234375 C44.7313988,2.05729167 45.1428571,3.05654762 45.1428571,4.23214286 L45.1428571,16.9285714 L59.25,16.9285714 C60.0141369,16.9285714 60.6754092,17.2077753 61.233817,17.766183 C61.7922247,18.3245908 62.0714286,18.9858631 62.0714286,19.75 Z" id="Shape"></path>
            </g>
        </g>
    </g>
</svg>