<?xml version="1.0" encoding="UTF-8"?>
<svg width="72px" height="72px" viewBox="0 0 72 72" version="1.1" xmlns="http://www.w3.org/2000/svg" xmlns:xlink="http://www.w3.org/1999/xlink">
    <!-- Generator: sketchtool 62 (101010) - https://sketch.com -->
    <title>16183996-4782-48E8-8051-0DBB7FC0BC1F</title>
    <desc>Created with sketchtool.</desc>
    <g id="Page-1" stroke="none" stroke-width="1" fill="none" fill-rule="evenodd" stroke-linecap="round">
        <g id="Homepage" transform="translate(-65.000000, -224.000000)" stroke="#FFFFFF" stroke-width="3">
            <g id="iconfinder_SLA_2093653" transform="translate(62.000000, 221.000000)">
                <g id="SLA" transform="translate(4.511111, 4.511111)">
                    <path d="M66.4133333,68.1688889 L1.80888889,68.1688889 C0.755555556,68.1688889 0.0533333333,67.4666667 0.0533333333,66.4133333 L0.0533333333,1.80888889 C0.0533333333,0.755555556 0.755555556,0.0533333333 1.80888889,0.0533333333 L66.4133333,0.0533333333 C67.4666667,0.0533333333 68.1688889,0.755555556 68.1688889,1.80888889 L68.1688889,66.4133333 C68.1688889,67.2911111 67.2911111,68.1688889 66.4133333,68.1688889 Z" id="Path"></path>
                    <g id="Group" transform="translate(10.533333, 11.288889)">
                        <g transform="translate(0.000000, 35.111111)" id="Path">
                            <line x1="0.58" y1="7.37333333" x2="22.5244444" y2="7.37333333"></line>
                        </g>
                        <g transform="translate(0.000000, 17.555556)" id="Path">
                            <line x1="0.58" y1="7.37333333" x2="22.5244444" y2="7.37333333"></line>
                            <line x1="33.5844444" y1="4.91555556" x2="37.9733333" y2="9.65555556"></line>
                            <line x1="46.5755556" y1="0.877777778" x2="37.9733333" y2="9.65555556"></line>
                        </g>
                        <g id="Path">
                            <line x1="0.58" y1="7.37333333" x2="22.5244444" y2="7.37333333"></line>
                            <line x1="33.5844444" y1="4.91555556" x2="37.9733333" y2="9.65555556"></line>
                            <line x1="46.5755556" y1="0.877777778" x2="37.9733333" y2="9.65555556"></line>
                        </g>
                    </g>
                </g>
            </g>
        </g>
    </g>
</svg>